<mxfile host="Electron" modified="2024-01-29T19:17:56.838Z" agent="Mozilla/5.0 (Windows NT 10.0; Win64; x64) AppleWebKit/537.36 (KHTML, like Gecko) draw.io/22.1.21 Chrome/120.0.6099.109 Electron/28.1.0 Safari/537.36" etag="gfzSu7U2vBaMCZ29jBWv" version="22.1.21" type="device">
  <diagram name="Page-1" id="PKnbfGDvdImAzm3Tz3j7">
    <mxGraphModel dx="1036" dy="606" grid="0" gridSize="10" guides="1" tooltips="1" connect="1" arrows="1" fold="1" page="1" pageScale="1" pageWidth="827" pageHeight="1169" background="#ffffff" math="0" shadow="0">
      <root>
        <mxCell id="0" />
        <mxCell id="1" parent="0" />
        <mxCell id="D8XOkA7cvgEgh_rD4I0m-1" value="" style="ellipse;html=1;shape=startState;fillColor=#FAE5C7;strokeColor=#0F8B8D;labelBackgroundColor=none;fontColor=#143642;fontFamily=Helvetica;fontSize=16;" parent="1" vertex="1">
          <mxGeometry x="374" y="76" width="70" height="50" as="geometry" />
        </mxCell>
        <mxCell id="D8XOkA7cvgEgh_rD4I0m-2" value="" style="edgeStyle=orthogonalEdgeStyle;html=1;verticalAlign=bottom;endArrow=open;endSize=8;strokeColor=#A8201A;rounded=0;labelBackgroundColor=none;fontColor=default;fontFamily=Helvetica;fontSize=16;" parent="1" source="D8XOkA7cvgEgh_rD4I0m-1" edge="1">
          <mxGeometry relative="1" as="geometry">
            <mxPoint x="409" y="176" as="targetPoint" />
          </mxGeometry>
        </mxCell>
        <mxCell id="D8XOkA7cvgEgh_rD4I0m-3" value="&lt;font style=&quot;font-size: 20px;&quot;&gt;Activity diagram for Hardware components&lt;/font&gt;" style="text;html=1;align=center;verticalAlign=middle;resizable=0;points=[];autosize=1;strokeColor=none;fillColor=none;labelBackgroundColor=none;fontColor=#143642;fontFamily=Helvetica;fontSize=16;" parent="1" vertex="1">
          <mxGeometry x="236.5" width="395" height="36" as="geometry" />
        </mxCell>
        <mxCell id="D8XOkA7cvgEgh_rD4I0m-6" style="edgeStyle=orthogonalEdgeStyle;rounded=0;orthogonalLoop=1;jettySize=auto;html=1;entryX=0.5;entryY=0;entryDx=0;entryDy=0;labelBackgroundColor=none;strokeColor=#A8201A;fontColor=default;fontFamily=Helvetica;fontSize=16;" parent="1" source="D8XOkA7cvgEgh_rD4I0m-4" target="D8XOkA7cvgEgh_rD4I0m-5" edge="1">
          <mxGeometry relative="1" as="geometry" />
        </mxCell>
        <mxCell id="D8XOkA7cvgEgh_rD4I0m-4" value="Raspberry PI" style="rounded=1;whiteSpace=wrap;html=1;labelBackgroundColor=none;fillColor=#FAE5C7;strokeColor=#0F8B8D;fontColor=#143642;fontFamily=Helvetica;fontSize=16;" parent="1" vertex="1">
          <mxGeometry x="319" y="176" width="190" height="60" as="geometry" />
        </mxCell>
        <mxCell id="D8XOkA7cvgEgh_rD4I0m-8" style="edgeStyle=orthogonalEdgeStyle;rounded=0;orthogonalLoop=1;jettySize=auto;html=1;entryX=0.5;entryY=0;entryDx=0;entryDy=0;labelBackgroundColor=none;strokeColor=#A8201A;fontColor=default;fontFamily=Helvetica;fontSize=16;" parent="1" source="D8XOkA7cvgEgh_rD4I0m-5" target="D8XOkA7cvgEgh_rD4I0m-9" edge="1">
          <mxGeometry relative="1" as="geometry">
            <mxPoint x="414" y="456" as="targetPoint" />
          </mxGeometry>
        </mxCell>
        <mxCell id="D8XOkA7cvgEgh_rD4I0m-5" value="Insert Micro SD Card" style="rounded=1;whiteSpace=wrap;html=1;labelBackgroundColor=none;fillColor=#FAE5C7;strokeColor=#0F8B8D;fontColor=#143642;fontFamily=Helvetica;fontSize=16;" parent="1" vertex="1">
          <mxGeometry x="319" y="326" width="190" height="60" as="geometry" />
        </mxCell>
        <mxCell id="D8XOkA7cvgEgh_rD4I0m-12" style="edgeStyle=orthogonalEdgeStyle;rounded=0;orthogonalLoop=1;jettySize=auto;html=1;entryX=0.5;entryY=0;entryDx=0;entryDy=0;labelBackgroundColor=none;strokeColor=#A8201A;fontColor=default;fontFamily=Helvetica;fontSize=16;" parent="1" source="D8XOkA7cvgEgh_rD4I0m-9" target="D8XOkA7cvgEgh_rD4I0m-10" edge="1">
          <mxGeometry relative="1" as="geometry">
            <mxPoint x="229" y="626" as="targetPoint" />
          </mxGeometry>
        </mxCell>
        <mxCell id="D8XOkA7cvgEgh_rD4I0m-13" style="edgeStyle=orthogonalEdgeStyle;rounded=0;orthogonalLoop=1;jettySize=auto;html=1;entryX=0.547;entryY=-0.037;entryDx=0;entryDy=0;entryPerimeter=0;labelBackgroundColor=none;strokeColor=#A8201A;fontColor=default;fontFamily=Helvetica;fontSize=16;" parent="1" source="D8XOkA7cvgEgh_rD4I0m-9" target="D8XOkA7cvgEgh_rD4I0m-11" edge="1">
          <mxGeometry relative="1" as="geometry" />
        </mxCell>
        <mxCell id="D8XOkA7cvgEgh_rD4I0m-9" value="Connect Power Supply:" style="rhombus;whiteSpace=wrap;html=1;labelBackgroundColor=none;fillColor=#FAE5C7;strokeColor=#0F8B8D;fontColor=#143642;fontFamily=Helvetica;fontSize=16;" parent="1" vertex="1">
          <mxGeometry x="339" y="466" width="150" height="110" as="geometry" />
        </mxCell>
        <mxCell id="D8XOkA7cvgEgh_rD4I0m-17" style="edgeStyle=orthogonalEdgeStyle;rounded=0;orthogonalLoop=1;jettySize=auto;html=1;entryX=0.5;entryY=0;entryDx=0;entryDy=0;labelBackgroundColor=none;strokeColor=#A8201A;fontColor=default;fontFamily=Helvetica;fontSize=16;" parent="1" source="D8XOkA7cvgEgh_rD4I0m-10" target="D8XOkA7cvgEgh_rD4I0m-16" edge="1">
          <mxGeometry relative="1" as="geometry" />
        </mxCell>
        <mxCell id="D8XOkA7cvgEgh_rD4I0m-10" value="Power supply available" style="rounded=1;whiteSpace=wrap;html=1;labelBackgroundColor=none;fillColor=#FAE5C7;strokeColor=#0F8B8D;fontColor=#143642;fontFamily=Helvetica;fontSize=16;" parent="1" vertex="1">
          <mxGeometry x="109" y="555" width="150" height="60" as="geometry" />
        </mxCell>
        <mxCell id="D8XOkA7cvgEgh_rD4I0m-18" style="edgeStyle=orthogonalEdgeStyle;rounded=0;orthogonalLoop=1;jettySize=auto;html=1;entryX=0.5;entryY=0;entryDx=0;entryDy=0;labelBackgroundColor=none;strokeColor=#A8201A;fontColor=default;fontFamily=Helvetica;fontSize=16;" parent="1" source="D8XOkA7cvgEgh_rD4I0m-11" target="D8XOkA7cvgEgh_rD4I0m-9" edge="1">
          <mxGeometry relative="1" as="geometry">
            <mxPoint x="749" y="396" as="targetPoint" />
            <Array as="points">
              <mxPoint x="750" y="666" />
              <mxPoint x="750" y="466" />
            </Array>
          </mxGeometry>
        </mxCell>
        <mxCell id="D8XOkA7cvgEgh_rD4I0m-11" value="&amp;nbsp;check power supply&amp;nbsp;" style="rounded=1;whiteSpace=wrap;html=1;labelBackgroundColor=none;fillColor=#FAE5C7;strokeColor=#0F8B8D;fontColor=#143642;fontFamily=Helvetica;fontSize=16;" parent="1" vertex="1">
          <mxGeometry x="504" y="636" width="150" height="60" as="geometry" />
        </mxCell>
        <mxCell id="D8XOkA7cvgEgh_rD4I0m-14" value="yes" style="text;html=1;align=center;verticalAlign=middle;resizable=0;points=[];autosize=1;strokeColor=none;fillColor=none;labelBackgroundColor=none;fontColor=#143642;fontFamily=Helvetica;fontSize=16;" parent="1" vertex="1">
          <mxGeometry x="269" y="525" width="43" height="31" as="geometry" />
        </mxCell>
        <mxCell id="D8XOkA7cvgEgh_rD4I0m-15" value="no" style="text;html=1;align=center;verticalAlign=middle;resizable=0;points=[];autosize=1;strokeColor=none;fillColor=none;labelBackgroundColor=none;fontColor=#143642;fontFamily=Helvetica;fontSize=16;" parent="1" vertex="1">
          <mxGeometry x="513" y="525" width="36" height="31" as="geometry" />
        </mxCell>
        <mxCell id="D8XOkA7cvgEgh_rD4I0m-20" style="edgeStyle=orthogonalEdgeStyle;rounded=0;orthogonalLoop=1;jettySize=auto;html=1;entryX=0.5;entryY=0;entryDx=0;entryDy=0;labelBackgroundColor=none;strokeColor=#A8201A;fontColor=default;fontFamily=Helvetica;fontSize=16;" parent="1" source="D8XOkA7cvgEgh_rD4I0m-16" target="D8XOkA7cvgEgh_rD4I0m-19" edge="1">
          <mxGeometry relative="1" as="geometry" />
        </mxCell>
        <mxCell id="D8XOkA7cvgEgh_rD4I0m-16" value="Connect Internet through ethernet" style="rounded=1;whiteSpace=wrap;html=1;labelBackgroundColor=none;fillColor=#FAE5C7;strokeColor=#0F8B8D;fontColor=#143642;fontFamily=Helvetica;fontSize=16;" parent="1" vertex="1">
          <mxGeometry x="84" y="646" width="145" height="60" as="geometry" />
        </mxCell>
        <mxCell id="D8XOkA7cvgEgh_rD4I0m-22" style="edgeStyle=orthogonalEdgeStyle;rounded=0;orthogonalLoop=1;jettySize=auto;html=1;labelBackgroundColor=none;strokeColor=#A8201A;fontColor=default;fontFamily=Helvetica;fontSize=16;" parent="1" source="D8XOkA7cvgEgh_rD4I0m-19" target="D8XOkA7cvgEgh_rD4I0m-21" edge="1">
          <mxGeometry relative="1" as="geometry" />
        </mxCell>
        <mxCell id="D8XOkA7cvgEgh_rD4I0m-19" value="Attach Raspberry Pi High-Quality Camera Module" style="rounded=1;whiteSpace=wrap;html=1;labelBackgroundColor=none;fillColor=#FAE5C7;strokeColor=#0F8B8D;fontColor=#143642;fontFamily=Helvetica;fontSize=16;" parent="1" vertex="1">
          <mxGeometry x="229" y="724" width="260" height="60" as="geometry" />
        </mxCell>
        <mxCell id="D8XOkA7cvgEgh_rD4I0m-24" style="edgeStyle=orthogonalEdgeStyle;rounded=0;orthogonalLoop=1;jettySize=auto;html=1;entryX=0.5;entryY=0;entryDx=0;entryDy=0;labelBackgroundColor=none;strokeColor=#A8201A;fontColor=default;fontFamily=Helvetica;fontSize=16;" parent="1" source="D8XOkA7cvgEgh_rD4I0m-21" target="D8XOkA7cvgEgh_rD4I0m-23" edge="1">
          <mxGeometry relative="1" as="geometry" />
        </mxCell>
        <mxCell id="D8XOkA7cvgEgh_rD4I0m-21" value="Initialize Raspberry Pi" style="rounded=1;whiteSpace=wrap;html=1;labelBackgroundColor=none;fillColor=#FAE5C7;strokeColor=#0F8B8D;fontColor=#143642;fontFamily=Helvetica;fontSize=16;" parent="1" vertex="1">
          <mxGeometry x="28" y="797" width="170" height="60" as="geometry" />
        </mxCell>
        <mxCell id="D8XOkA7cvgEgh_rD4I0m-27" style="edgeStyle=orthogonalEdgeStyle;rounded=0;orthogonalLoop=1;jettySize=auto;html=1;labelBackgroundColor=none;strokeColor=#A8201A;fontColor=default;fontFamily=Helvetica;fontSize=16;" parent="1" source="D8XOkA7cvgEgh_rD4I0m-23" target="D8XOkA7cvgEgh_rD4I0m-25" edge="1">
          <mxGeometry relative="1" as="geometry" />
        </mxCell>
        <mxCell id="D8XOkA7cvgEgh_rD4I0m-28" style="edgeStyle=orthogonalEdgeStyle;rounded=0;orthogonalLoop=1;jettySize=auto;html=1;entryX=0.65;entryY=-0.003;entryDx=0;entryDy=0;entryPerimeter=0;labelBackgroundColor=none;strokeColor=#A8201A;fontColor=default;fontFamily=Helvetica;fontSize=16;" parent="1" source="D8XOkA7cvgEgh_rD4I0m-23" target="D8XOkA7cvgEgh_rD4I0m-26" edge="1">
          <mxGeometry relative="1" as="geometry" />
        </mxCell>
        <mxCell id="D8XOkA7cvgEgh_rD4I0m-23" value="Check Camera Connection" style="rhombus;whiteSpace=wrap;html=1;labelBackgroundColor=none;fillColor=#FAE5C7;strokeColor=#0F8B8D;fontColor=#143642;fontFamily=Helvetica;fontSize=16;" parent="1" vertex="1">
          <mxGeometry x="368" y="847" width="160" height="120" as="geometry" />
        </mxCell>
        <mxCell id="D8XOkA7cvgEgh_rD4I0m-32" style="edgeStyle=orthogonalEdgeStyle;rounded=0;orthogonalLoop=1;jettySize=auto;html=1;entryX=0.5;entryY=0;entryDx=0;entryDy=0;labelBackgroundColor=none;strokeColor=#A8201A;fontColor=default;fontFamily=Helvetica;fontSize=16;" parent="1" source="D8XOkA7cvgEgh_rD4I0m-25" target="D8XOkA7cvgEgh_rD4I0m-31" edge="1">
          <mxGeometry relative="1" as="geometry" />
        </mxCell>
        <mxCell id="D8XOkA7cvgEgh_rD4I0m-25" value="Camera Connected" style="rounded=1;whiteSpace=wrap;html=1;labelBackgroundColor=none;fillColor=#FAE5C7;strokeColor=#0F8B8D;fontColor=#143642;fontFamily=Helvetica;fontSize=16;" parent="1" vertex="1">
          <mxGeometry x="186.5" y="907" width="140" height="60" as="geometry" />
        </mxCell>
        <mxCell id="D8XOkA7cvgEgh_rD4I0m-29" style="edgeStyle=orthogonalEdgeStyle;rounded=0;orthogonalLoop=1;jettySize=auto;html=1;entryX=0.5;entryY=0;entryDx=0;entryDy=0;exitX=1;exitY=0.5;exitDx=0;exitDy=0;labelBackgroundColor=none;strokeColor=#A8201A;fontColor=default;fontFamily=Helvetica;fontSize=16;" parent="1" source="D8XOkA7cvgEgh_rD4I0m-26" target="D8XOkA7cvgEgh_rD4I0m-23" edge="1">
          <mxGeometry relative="1" as="geometry">
            <mxPoint x="758" y="897" as="targetPoint" />
            <Array as="points">
              <mxPoint x="618" y="1027" />
              <mxPoint x="618" y="1087" />
              <mxPoint x="768" y="1087" />
              <mxPoint x="768" y="847" />
            </Array>
          </mxGeometry>
        </mxCell>
        <mxCell id="D8XOkA7cvgEgh_rD4I0m-26" value="Camera not Connected&lt;span style=&quot;font-size: 16px;&quot;&gt;&lt;span style=&quot;white-space: pre; font-size: 16px;&quot;&gt;&amp;nbsp;&amp;nbsp;&amp;nbsp;&amp;nbsp;&lt;/span&gt;&lt;/span&gt;" style="rounded=1;whiteSpace=wrap;html=1;labelBackgroundColor=none;fillColor=#FAE5C7;strokeColor=#0F8B8D;fontColor=#143642;fontFamily=Helvetica;fontSize=16;" parent="1" vertex="1">
          <mxGeometry x="543" y="997" width="150" height="60" as="geometry" />
        </mxCell>
        <mxCell id="D8XOkA7cvgEgh_rD4I0m-30" value="Troubleshoot and recheck connections" style="text;html=1;align=center;verticalAlign=middle;resizable=0;points=[];autosize=1;strokeColor=none;fillColor=none;labelBackgroundColor=none;fontColor=#143642;fontFamily=Helvetica;fontSize=16;" parent="1" vertex="1">
          <mxGeometry x="523" y="1092" width="292" height="31" as="geometry" />
        </mxCell>
        <mxCell id="D8XOkA7cvgEgh_rD4I0m-34" style="edgeStyle=orthogonalEdgeStyle;rounded=0;orthogonalLoop=1;jettySize=auto;html=1;entryX=0.5;entryY=0;entryDx=0;entryDy=0;labelBackgroundColor=none;strokeColor=#A8201A;fontColor=default;fontFamily=Helvetica;fontSize=16;" parent="1" source="D8XOkA7cvgEgh_rD4I0m-31" target="D8XOkA7cvgEgh_rD4I0m-33" edge="1">
          <mxGeometry relative="1" as="geometry" />
        </mxCell>
        <mxCell id="D8XOkA7cvgEgh_rD4I0m-31" value="Execute Camera Test Script" style="rounded=1;whiteSpace=wrap;html=1;labelBackgroundColor=none;fillColor=#FAE5C7;strokeColor=#0F8B8D;fontColor=#143642;fontFamily=Helvetica;fontSize=16;" parent="1" vertex="1">
          <mxGeometry x="49" y="1005" width="240" height="60" as="geometry" />
        </mxCell>
        <mxCell id="D8XOkA7cvgEgh_rD4I0m-33" value="" style="ellipse;html=1;shape=endState;fillColor=#FAE5C7;strokeColor=#0F8B8D;labelBackgroundColor=none;fontColor=#143642;fontFamily=Helvetica;fontSize=16;" parent="1" vertex="1">
          <mxGeometry x="264" y="1098" width="30" height="30" as="geometry" />
        </mxCell>
        <mxCell id="D8XOkA7cvgEgh_rD4I0m-35" value="END" style="text;html=1;align=center;verticalAlign=middle;resizable=0;points=[];autosize=1;strokeColor=none;fillColor=none;labelBackgroundColor=none;fontColor=#143642;fontFamily=Helvetica;fontSize=16;" parent="1" vertex="1">
          <mxGeometry x="256" y="1128" width="52" height="31" as="geometry" />
        </mxCell>
        <mxCell id="D8XOkA7cvgEgh_rD4I0m-37" value="Complete Hardware activity diagram&lt;br style=&quot;font-size: 16px;&quot;&gt;" style="text;html=1;align=center;verticalAlign=middle;resizable=0;points=[];autosize=1;strokeColor=none;fillColor=none;labelBackgroundColor=none;fontColor=#143642;fontFamily=Helvetica;fontSize=16;" parent="1" vertex="1">
          <mxGeometry x="299" y="36" width="276" height="31" as="geometry" />
        </mxCell>
        <mxCell id="D8XOkA7cvgEgh_rD4I0m-39" value="&lt;font style=&quot;font-size: 16px;&quot;&gt;COMPLETE ACTIVITY DIAGRAM&lt;/font&gt;" style="text;html=1;align=center;verticalAlign=middle;resizable=0;points=[];autosize=1;strokeColor=none;fillColor=none;labelBackgroundColor=none;fontColor=#143642;fontFamily=Helvetica;fontSize=16;" parent="1" vertex="1">
          <mxGeometry x="278" y="1169" width="260" height="31" as="geometry" />
        </mxCell>
        <mxCell id="D8XOkA7cvgEgh_rD4I0m-41" value="" style="ellipse;html=1;shape=startState;fillColor=#FAE5C7;strokeColor=#0F8B8D;labelBackgroundColor=none;fontColor=#143642;fontFamily=Helvetica;fontSize=16;" parent="1" vertex="1">
          <mxGeometry x="406" y="1200" width="30" height="30" as="geometry" />
        </mxCell>
        <mxCell id="D8XOkA7cvgEgh_rD4I0m-42" value="" style="edgeStyle=orthogonalEdgeStyle;html=1;verticalAlign=bottom;endArrow=open;endSize=8;strokeColor=#A8201A;rounded=0;entryX=0.5;entryY=0;entryDx=0;entryDy=0;labelBackgroundColor=none;fontColor=default;fontFamily=Helvetica;fontSize=16;" parent="1" source="D8XOkA7cvgEgh_rD4I0m-41" target="D8XOkA7cvgEgh_rD4I0m-46" edge="1">
          <mxGeometry relative="1" as="geometry">
            <mxPoint x="421" y="1290" as="targetPoint" />
          </mxGeometry>
        </mxCell>
        <mxCell id="D8XOkA7cvgEgh_rD4I0m-48" style="edgeStyle=orthogonalEdgeStyle;rounded=0;orthogonalLoop=1;jettySize=auto;html=1;entryX=0.5;entryY=0;entryDx=0;entryDy=0;labelBackgroundColor=none;strokeColor=#A8201A;fontColor=default;fontFamily=Helvetica;fontSize=16;" parent="1" source="D8XOkA7cvgEgh_rD4I0m-46" target="D8XOkA7cvgEgh_rD4I0m-47" edge="1">
          <mxGeometry relative="1" as="geometry" />
        </mxCell>
        <mxCell id="D8XOkA7cvgEgh_rD4I0m-46" value="Connect Camera to Raspberry Pi" style="rounded=1;whiteSpace=wrap;html=1;labelBackgroundColor=none;fillColor=#FAE5C7;strokeColor=#0F8B8D;fontColor=#143642;fontFamily=Helvetica;fontSize=16;" parent="1" vertex="1">
          <mxGeometry x="326.5" y="1252" width="190" height="60" as="geometry" />
        </mxCell>
        <mxCell id="D8XOkA7cvgEgh_rD4I0m-50" style="edgeStyle=orthogonalEdgeStyle;rounded=0;orthogonalLoop=1;jettySize=auto;html=1;entryX=0.5;entryY=0;entryDx=0;entryDy=0;labelBackgroundColor=none;strokeColor=#A8201A;fontColor=default;fontFamily=Helvetica;fontSize=16;" parent="1" source="D8XOkA7cvgEgh_rD4I0m-47" target="D8XOkA7cvgEgh_rD4I0m-49" edge="1">
          <mxGeometry relative="1" as="geometry" />
        </mxCell>
        <mxCell id="D8XOkA7cvgEgh_rD4I0m-47" value="Enable Camera Interface on Raspberry Pi" style="rounded=1;whiteSpace=wrap;html=1;labelBackgroundColor=none;fillColor=#FAE5C7;strokeColor=#0F8B8D;fontColor=#143642;fontFamily=Helvetica;fontSize=16;" parent="1" vertex="1">
          <mxGeometry x="28" y="1306" width="190" height="60" as="geometry" />
        </mxCell>
        <mxCell id="D8XOkA7cvgEgh_rD4I0m-52" style="edgeStyle=orthogonalEdgeStyle;rounded=0;orthogonalLoop=1;jettySize=auto;html=1;entryX=0.5;entryY=0;entryDx=0;entryDy=0;labelBackgroundColor=none;strokeColor=#A8201A;fontColor=default;fontFamily=Helvetica;fontSize=16;" parent="1" source="D8XOkA7cvgEgh_rD4I0m-49" target="D8XOkA7cvgEgh_rD4I0m-51" edge="1">
          <mxGeometry relative="1" as="geometry" />
        </mxCell>
        <mxCell id="D8XOkA7cvgEgh_rD4I0m-49" value="Installation of Necessary Software" style="rounded=1;whiteSpace=wrap;html=1;labelBackgroundColor=none;fillColor=#FAE5C7;strokeColor=#0F8B8D;fontColor=#143642;fontFamily=Helvetica;fontSize=16;" parent="1" vertex="1">
          <mxGeometry x="28" y="1402" width="190" height="60" as="geometry" />
        </mxCell>
        <mxCell id="D8XOkA7cvgEgh_rD4I0m-57" style="edgeStyle=orthogonalEdgeStyle;rounded=0;orthogonalLoop=1;jettySize=auto;html=1;entryX=0.499;entryY=0.1;entryDx=0;entryDy=0;entryPerimeter=0;labelBackgroundColor=none;strokeColor=#A8201A;fontColor=default;fontFamily=Helvetica;fontSize=16;" parent="1" source="D8XOkA7cvgEgh_rD4I0m-51" target="D8XOkA7cvgEgh_rD4I0m-56" edge="1">
          <mxGeometry relative="1" as="geometry" />
        </mxCell>
        <mxCell id="D8XOkA7cvgEgh_rD4I0m-51" value="Set Up AWS Account" style="rounded=1;whiteSpace=wrap;html=1;labelBackgroundColor=none;fillColor=#FAE5C7;strokeColor=#0F8B8D;fontColor=#143642;fontFamily=Helvetica;fontSize=16;" parent="1" vertex="1">
          <mxGeometry x="284" y="1350" width="190" height="60" as="geometry" />
        </mxCell>
        <mxCell id="D8XOkA7cvgEgh_rD4I0m-56" value="" style="line;strokeWidth=1;rotatable=0;dashed=0;labelPosition=right;align=left;verticalAlign=middle;spacingTop=0;spacingLeft=6;points=[];portConstraint=eastwest;labelBackgroundColor=none;fillColor=#FAE5C7;strokeColor=#0F8B8D;fontColor=#143642;fontFamily=Helvetica;fontSize=16;" parent="1" vertex="1">
          <mxGeometry x="279" y="1462" width="520" height="10" as="geometry" />
        </mxCell>
        <mxCell id="D8XOkA7cvgEgh_rD4I0m-58" value="" style="endArrow=classic;html=1;rounded=0;exitX=0.094;exitY=0.66;exitDx=0;exitDy=0;exitPerimeter=0;labelBackgroundColor=none;strokeColor=#A8201A;fontColor=default;fontFamily=Helvetica;fontSize=16;" parent="1" source="D8XOkA7cvgEgh_rD4I0m-56" edge="1">
          <mxGeometry width="50" height="50" relative="1" as="geometry">
            <mxPoint x="269" y="1572" as="sourcePoint" />
            <mxPoint x="329" y="1522" as="targetPoint" />
          </mxGeometry>
        </mxCell>
        <mxCell id="D8XOkA7cvgEgh_rD4I0m-59" value="Amazon S3" style="rounded=1;whiteSpace=wrap;html=1;labelBackgroundColor=none;fillColor=#FAE5C7;strokeColor=#0F8B8D;fontColor=#143642;fontFamily=Helvetica;fontSize=16;" parent="1" vertex="1">
          <mxGeometry x="269" y="1522" width="120" height="60" as="geometry" />
        </mxCell>
        <mxCell id="D8XOkA7cvgEgh_rD4I0m-60" value="" style="endArrow=classic;html=1;rounded=0;exitX=0.498;exitY=0.74;exitDx=0;exitDy=0;exitPerimeter=0;entryX=0.5;entryY=0;entryDx=0;entryDy=0;labelBackgroundColor=none;strokeColor=#A8201A;fontColor=default;fontFamily=Helvetica;fontSize=16;" parent="1" source="D8XOkA7cvgEgh_rD4I0m-56" target="D8XOkA7cvgEgh_rD4I0m-61" edge="1">
          <mxGeometry width="50" height="50" relative="1" as="geometry">
            <mxPoint x="529" y="1492" as="sourcePoint" />
            <mxPoint x="538" y="1522" as="targetPoint" />
          </mxGeometry>
        </mxCell>
        <mxCell id="D8XOkA7cvgEgh_rD4I0m-61" value="DyanamoDB" style="rounded=1;whiteSpace=wrap;html=1;labelBackgroundColor=none;fillColor=#FAE5C7;strokeColor=#0F8B8D;fontColor=#143642;fontFamily=Helvetica;fontSize=16;" parent="1" vertex="1">
          <mxGeometry x="479" y="1522" width="120" height="60" as="geometry" />
        </mxCell>
        <mxCell id="D8XOkA7cvgEgh_rD4I0m-63" value="" style="endArrow=classic;html=1;rounded=0;exitX=0.868;exitY=0.66;exitDx=0;exitDy=0;exitPerimeter=0;entryX=0.5;entryY=0;entryDx=0;entryDy=0;labelBackgroundColor=none;strokeColor=#A8201A;fontColor=default;fontFamily=Helvetica;fontSize=16;" parent="1" source="D8XOkA7cvgEgh_rD4I0m-56" target="D8XOkA7cvgEgh_rD4I0m-64" edge="1">
          <mxGeometry width="50" height="50" relative="1" as="geometry">
            <mxPoint x="739" y="1542" as="sourcePoint" />
            <mxPoint x="724" y="1522" as="targetPoint" />
          </mxGeometry>
        </mxCell>
        <mxCell id="D8XOkA7cvgEgh_rD4I0m-64" value="Amazon EC2 " style="rounded=1;whiteSpace=wrap;html=1;labelBackgroundColor=none;fillColor=#FAE5C7;strokeColor=#0F8B8D;fontColor=#143642;fontFamily=Helvetica;fontSize=16;" parent="1" vertex="1">
          <mxGeometry x="669" y="1522" width="120" height="60" as="geometry" />
        </mxCell>
        <mxCell id="D8XOkA7cvgEgh_rD4I0m-66" value="" style="endArrow=classic;html=1;rounded=0;exitX=0.5;exitY=1;exitDx=0;exitDy=0;labelBackgroundColor=none;strokeColor=#A8201A;fontColor=default;fontFamily=Helvetica;fontSize=16;" parent="1" source="D8XOkA7cvgEgh_rD4I0m-59" edge="1">
          <mxGeometry width="50" height="50" relative="1" as="geometry">
            <mxPoint x="289" y="1682" as="sourcePoint" />
            <mxPoint x="329" y="1642" as="targetPoint" />
          </mxGeometry>
        </mxCell>
        <mxCell id="D8XOkA7cvgEgh_rD4I0m-67" value="" style="endArrow=classic;html=1;rounded=0;exitX=0.5;exitY=1;exitDx=0;exitDy=0;labelBackgroundColor=none;strokeColor=#A8201A;fontColor=default;fontFamily=Helvetica;fontSize=16;entryX=0.5;entryY=0;entryDx=0;entryDy=0;" parent="1" source="D8XOkA7cvgEgh_rD4I0m-61" edge="1" target="D8XOkA7cvgEgh_rD4I0m-71">
          <mxGeometry width="50" height="50" relative="1" as="geometry">
            <mxPoint x="559" y="1662" as="sourcePoint" />
            <mxPoint x="539" y="1642" as="targetPoint" />
          </mxGeometry>
        </mxCell>
        <mxCell id="D8XOkA7cvgEgh_rD4I0m-68" value="" style="endArrow=classic;html=1;rounded=0;exitX=0.5;exitY=1;exitDx=0;exitDy=0;labelBackgroundColor=none;strokeColor=#A8201A;fontColor=default;fontFamily=Helvetica;fontSize=16;" parent="1" source="D8XOkA7cvgEgh_rD4I0m-64" edge="1">
          <mxGeometry width="50" height="50" relative="1" as="geometry">
            <mxPoint x="739" y="1632" as="sourcePoint" />
            <mxPoint x="729" y="1642" as="targetPoint" />
          </mxGeometry>
        </mxCell>
        <mxCell id="D8XOkA7cvgEgh_rD4I0m-69" value="" style="endArrow=none;html=1;rounded=0;labelBackgroundColor=none;strokeColor=#A8201A;fontColor=default;fontFamily=Helvetica;fontSize=16;" parent="1" edge="1">
          <mxGeometry width="50" height="50" relative="1" as="geometry">
            <mxPoint x="274" y="1466.5" as="sourcePoint" />
            <mxPoint x="794" y="1466.5" as="targetPoint" />
          </mxGeometry>
        </mxCell>
        <mxCell id="D8XOkA7cvgEgh_rD4I0m-74" style="edgeStyle=orthogonalEdgeStyle;rounded=0;orthogonalLoop=1;jettySize=auto;html=1;entryX=0.5;entryY=0;entryDx=0;entryDy=0;labelBackgroundColor=none;strokeColor=#A8201A;fontColor=default;fontFamily=Helvetica;fontSize=16;" parent="1" source="D8XOkA7cvgEgh_rD4I0m-71" target="D8XOkA7cvgEgh_rD4I0m-73" edge="1">
          <mxGeometry relative="1" as="geometry" />
        </mxCell>
        <mxCell id="D8XOkA7cvgEgh_rD4I0m-71" value="Configure AWS Credentials on Raspberry Pi" style="rounded=1;whiteSpace=wrap;html=1;labelBackgroundColor=none;fillColor=#FAE5C7;strokeColor=#0F8B8D;fontColor=#143642;fontFamily=Helvetica;fontSize=16;" parent="1" vertex="1">
          <mxGeometry x="408.5" y="1658" width="260" height="60" as="geometry" />
        </mxCell>
        <mxCell id="D8XOkA7cvgEgh_rD4I0m-76" style="edgeStyle=orthogonalEdgeStyle;rounded=0;orthogonalLoop=1;jettySize=auto;html=1;entryX=0.5;entryY=0;entryDx=0;entryDy=0;labelBackgroundColor=none;strokeColor=#A8201A;fontColor=default;fontFamily=Helvetica;fontSize=16;" parent="1" source="D8XOkA7cvgEgh_rD4I0m-73" target="D8XOkA7cvgEgh_rD4I0m-75" edge="1">
          <mxGeometry relative="1" as="geometry" />
        </mxCell>
        <mxCell id="D8XOkA7cvgEgh_rD4I0m-73" value="Capture Images with Raspberry Pi" style="rounded=1;whiteSpace=wrap;html=1;labelBackgroundColor=none;fillColor=#FAE5C7;strokeColor=#0F8B8D;fontColor=#143642;fontFamily=Helvetica;fontSize=16;" parent="1" vertex="1">
          <mxGeometry x="44" y="1700" width="240" height="60" as="geometry" />
        </mxCell>
        <mxCell id="D8XOkA7cvgEgh_rD4I0m-80" style="edgeStyle=orthogonalEdgeStyle;rounded=0;orthogonalLoop=1;jettySize=auto;html=1;entryX=0.5;entryY=0;entryDx=0;entryDy=0;labelBackgroundColor=none;strokeColor=#A8201A;fontColor=default;fontFamily=Helvetica;fontSize=16;" parent="1" source="D8XOkA7cvgEgh_rD4I0m-75" target="D8XOkA7cvgEgh_rD4I0m-77" edge="1">
          <mxGeometry relative="1" as="geometry" />
        </mxCell>
        <mxCell id="D8XOkA7cvgEgh_rD4I0m-82" style="edgeStyle=orthogonalEdgeStyle;rounded=0;orthogonalLoop=1;jettySize=auto;html=1;entryX=0.5;entryY=0;entryDx=0;entryDy=0;labelBackgroundColor=none;strokeColor=#A8201A;fontColor=default;fontFamily=Helvetica;fontSize=16;" parent="1" source="D8XOkA7cvgEgh_rD4I0m-75" target="D8XOkA7cvgEgh_rD4I0m-81" edge="1">
          <mxGeometry relative="1" as="geometry" />
        </mxCell>
        <mxCell id="D8XOkA7cvgEgh_rD4I0m-75" value="Implement Facial Recognition&amp;nbsp;algorithm" style="rhombus;whiteSpace=wrap;html=1;labelBackgroundColor=none;fillColor=#FAE5C7;strokeColor=#0F8B8D;fontColor=#143642;fontFamily=Helvetica;fontSize=16;" parent="1" vertex="1">
          <mxGeometry x="49" y="1796" width="230" height="120" as="geometry" />
        </mxCell>
        <mxCell id="D8XOkA7cvgEgh_rD4I0m-88" style="edgeStyle=orthogonalEdgeStyle;rounded=0;orthogonalLoop=1;jettySize=auto;html=1;entryX=0.5;entryY=0;entryDx=0;entryDy=0;labelBackgroundColor=none;strokeColor=#A8201A;fontColor=default;fontFamily=Helvetica;fontSize=16;" parent="1" source="D8XOkA7cvgEgh_rD4I0m-77" target="D8XOkA7cvgEgh_rD4I0m-87" edge="1">
          <mxGeometry relative="1" as="geometry" />
        </mxCell>
        <mxCell id="D8XOkA7cvgEgh_rD4I0m-77" value="Face recognised successfully" style="rounded=1;whiteSpace=wrap;html=1;labelBackgroundColor=none;fillColor=#FAE5C7;strokeColor=#0F8B8D;fontColor=#143642;fontFamily=Helvetica;fontSize=16;" parent="1" vertex="1">
          <mxGeometry x="49" y="1980" width="230" height="60" as="geometry" />
        </mxCell>
        <mxCell id="D8XOkA7cvgEgh_rD4I0m-85" style="edgeStyle=orthogonalEdgeStyle;rounded=0;orthogonalLoop=1;jettySize=auto;html=1;labelBackgroundColor=none;strokeColor=#A8201A;fontColor=default;fontFamily=Helvetica;fontSize=16;" parent="1" source="D8XOkA7cvgEgh_rD4I0m-81" edge="1">
          <mxGeometry relative="1" as="geometry">
            <mxPoint x="164" y="1910" as="targetPoint" />
            <Array as="points">
              <mxPoint x="532" y="1937" />
              <mxPoint x="164" y="1937" />
            </Array>
          </mxGeometry>
        </mxCell>
        <mxCell id="D8XOkA7cvgEgh_rD4I0m-81" value="Face not recognised" style="rounded=1;whiteSpace=wrap;html=1;labelBackgroundColor=none;fillColor=#FAE5C7;strokeColor=#0F8B8D;fontColor=#143642;fontFamily=Helvetica;fontSize=16;" parent="1" vertex="1">
          <mxGeometry x="432" y="1814" width="200" height="60" as="geometry" />
        </mxCell>
        <mxCell id="D8XOkA7cvgEgh_rD4I0m-83" value="worked" style="text;html=1;align=center;verticalAlign=middle;resizable=0;points=[];autosize=1;strokeColor=none;fillColor=none;labelBackgroundColor=none;fontColor=#143642;fontFamily=Helvetica;fontSize=16;" parent="1" vertex="1">
          <mxGeometry x="168.5" y="1944" width="70" height="31" as="geometry" />
        </mxCell>
        <mxCell id="D8XOkA7cvgEgh_rD4I0m-84" value="error" style="text;html=1;strokeColor=none;fillColor=none;align=center;verticalAlign=middle;whiteSpace=wrap;rounded=0;labelBackgroundColor=none;fontColor=#143642;fontFamily=Helvetica;fontSize=16;" parent="1" vertex="1">
          <mxGeometry x="402" y="1754" width="60" height="30" as="geometry" />
        </mxCell>
        <mxCell id="D8XOkA7cvgEgh_rD4I0m-86" value="trouble shoot and check algorithm" style="text;html=1;align=center;verticalAlign=middle;resizable=0;points=[];autosize=1;strokeColor=none;fillColor=none;labelBackgroundColor=none;fontColor=#143642;fontFamily=Helvetica;fontSize=16;" parent="1" vertex="1">
          <mxGeometry x="548.5" y="1778" width="258" height="31" as="geometry" />
        </mxCell>
        <mxCell id="D8XOkA7cvgEgh_rD4I0m-91" style="edgeStyle=orthogonalEdgeStyle;rounded=0;orthogonalLoop=1;jettySize=auto;html=1;entryX=0.5;entryY=0;entryDx=0;entryDy=0;labelBackgroundColor=none;strokeColor=#A8201A;fontColor=default;fontFamily=Helvetica;fontSize=16;" parent="1" source="D8XOkA7cvgEgh_rD4I0m-87" target="D8XOkA7cvgEgh_rD4I0m-89" edge="1">
          <mxGeometry relative="1" as="geometry" />
        </mxCell>
        <mxCell id="D8XOkA7cvgEgh_rD4I0m-87" value="Upload Images to Amazon S3" style="rounded=1;whiteSpace=wrap;html=1;labelBackgroundColor=none;fillColor=#FAE5C7;strokeColor=#0F8B8D;fontColor=#143642;fontFamily=Helvetica;fontSize=16;" parent="1" vertex="1">
          <mxGeometry x="317" y="1984" width="230" height="60" as="geometry" />
        </mxCell>
        <mxCell id="D8XOkA7cvgEgh_rD4I0m-93" style="edgeStyle=orthogonalEdgeStyle;rounded=0;orthogonalLoop=1;jettySize=auto;html=1;entryX=0.5;entryY=0;entryDx=0;entryDy=0;labelBackgroundColor=none;strokeColor=#A8201A;fontColor=default;fontFamily=Helvetica;fontSize=16;" parent="1" source="D8XOkA7cvgEgh_rD4I0m-89" target="D8XOkA7cvgEgh_rD4I0m-92" edge="1">
          <mxGeometry relative="1" as="geometry" />
        </mxCell>
        <mxCell id="D8XOkA7cvgEgh_rD4I0m-89" value="Log Attendance Data" style="rounded=1;whiteSpace=wrap;html=1;labelBackgroundColor=none;fillColor=#FAE5C7;strokeColor=#0F8B8D;fontColor=#143642;fontFamily=Helvetica;fontSize=16;" parent="1" vertex="1">
          <mxGeometry x="538" y="2085" width="250" height="60" as="geometry" />
        </mxCell>
        <mxCell id="D8XOkA7cvgEgh_rD4I0m-95" style="edgeStyle=orthogonalEdgeStyle;rounded=0;orthogonalLoop=1;jettySize=auto;html=1;labelBackgroundColor=none;strokeColor=#A8201A;fontColor=default;fontFamily=Helvetica;fontSize=16;" parent="1" target="D8XOkA7cvgEgh_rD4I0m-94" edge="1">
          <mxGeometry relative="1" as="geometry">
            <mxPoint x="684" y="2207" as="sourcePoint" />
            <mxPoint x="414" y="2158" as="targetPoint" />
            <Array as="points">
              <mxPoint x="684" y="2158" />
              <mxPoint x="378" y="2158" />
            </Array>
          </mxGeometry>
        </mxCell>
        <mxCell id="D8XOkA7cvgEgh_rD4I0m-92" value="Store Data in DynamoDB" style="rounded=1;whiteSpace=wrap;html=1;labelBackgroundColor=none;fillColor=#FAE5C7;strokeColor=#0F8B8D;fontColor=#143642;fontFamily=Helvetica;fontSize=16;" parent="1" vertex="1">
          <mxGeometry x="569" y="2175" width="230" height="60" as="geometry" />
        </mxCell>
        <mxCell id="D8XOkA7cvgEgh_rD4I0m-97" style="edgeStyle=orthogonalEdgeStyle;rounded=0;orthogonalLoop=1;jettySize=auto;html=1;entryX=0.5;entryY=0;entryDx=0;entryDy=0;labelBackgroundColor=none;strokeColor=#A8201A;fontColor=default;fontFamily=Helvetica;fontSize=16;" parent="1" source="D8XOkA7cvgEgh_rD4I0m-94" target="D8XOkA7cvgEgh_rD4I0m-96" edge="1">
          <mxGeometry relative="1" as="geometry" />
        </mxCell>
        <mxCell id="D8XOkA7cvgEgh_rD4I0m-94" value="Backend Integration (Amazon EC2)" style="rounded=1;whiteSpace=wrap;html=1;labelBackgroundColor=none;fillColor=#FAE5C7;strokeColor=#0F8B8D;fontColor=#143642;fontFamily=Helvetica;fontSize=16;" parent="1" vertex="1">
          <mxGeometry x="243" y="2087" width="270" height="60" as="geometry" />
        </mxCell>
        <mxCell id="D8XOkA7cvgEgh_rD4I0m-100" style="edgeStyle=orthogonalEdgeStyle;rounded=0;orthogonalLoop=1;jettySize=auto;html=1;entryX=0.5;entryY=0;entryDx=0;entryDy=0;labelBackgroundColor=none;strokeColor=#A8201A;fontColor=default;fontFamily=Helvetica;fontSize=16;" parent="1" source="D8XOkA7cvgEgh_rD4I0m-96" target="D8XOkA7cvgEgh_rD4I0m-99" edge="1">
          <mxGeometry relative="1" as="geometry" />
        </mxCell>
        <mxCell id="D8XOkA7cvgEgh_rD4I0m-96" value="Frontend Integration" style="rounded=1;whiteSpace=wrap;html=1;labelBackgroundColor=none;fillColor=#FAE5C7;strokeColor=#0F8B8D;fontColor=#143642;fontFamily=Helvetica;fontSize=16;" parent="1" vertex="1">
          <mxGeometry x="259" y="2189" width="230" height="60" as="geometry" />
        </mxCell>
        <mxCell id="D8XOkA7cvgEgh_rD4I0m-102" style="edgeStyle=orthogonalEdgeStyle;rounded=0;orthogonalLoop=1;jettySize=auto;html=1;labelBackgroundColor=none;strokeColor=#A8201A;fontColor=default;fontFamily=Helvetica;fontSize=16;" parent="1" source="D8XOkA7cvgEgh_rD4I0m-99" target="D8XOkA7cvgEgh_rD4I0m-101" edge="1">
          <mxGeometry relative="1" as="geometry" />
        </mxCell>
        <mxCell id="D8XOkA7cvgEgh_rD4I0m-104" style="edgeStyle=orthogonalEdgeStyle;rounded=0;orthogonalLoop=1;jettySize=auto;html=1;entryX=0.5;entryY=0;entryDx=0;entryDy=0;labelBackgroundColor=none;strokeColor=#A8201A;fontColor=default;fontFamily=Helvetica;fontSize=16;" parent="1" source="D8XOkA7cvgEgh_rD4I0m-99" target="D8XOkA7cvgEgh_rD4I0m-103" edge="1">
          <mxGeometry relative="1" as="geometry" />
        </mxCell>
        <mxCell id="D8XOkA7cvgEgh_rD4I0m-99" value="checking student attendence" style="rhombus;whiteSpace=wrap;html=1;labelBackgroundColor=none;fillColor=#FAE5C7;strokeColor=#0F8B8D;fontColor=#143642;fontFamily=Helvetica;fontSize=16;" parent="1" vertex="1">
          <mxGeometry x="279" y="2369" width="190" height="120" as="geometry" />
        </mxCell>
        <mxCell id="D8XOkA7cvgEgh_rD4I0m-108" style="edgeStyle=orthogonalEdgeStyle;rounded=0;orthogonalLoop=1;jettySize=auto;html=1;entryX=0.473;entryY=0.037;entryDx=0;entryDy=0;entryPerimeter=0;labelBackgroundColor=none;strokeColor=#A8201A;fontColor=default;fontFamily=Helvetica;fontSize=16;" parent="1" source="D8XOkA7cvgEgh_rD4I0m-101" target="D8XOkA7cvgEgh_rD4I0m-107" edge="1">
          <mxGeometry relative="1" as="geometry" />
        </mxCell>
        <mxCell id="D8XOkA7cvgEgh_rD4I0m-101" value="Faced matched to the image in DB" style="rounded=1;whiteSpace=wrap;html=1;labelBackgroundColor=none;fillColor=#FAE5C7;strokeColor=#0F8B8D;fontColor=#143642;fontFamily=Helvetica;fontSize=16;" parent="1" vertex="1">
          <mxGeometry x="129" y="2539" width="175" height="60" as="geometry" />
        </mxCell>
        <mxCell id="D8XOkA7cvgEgh_rD4I0m-103" value="FACE not matched (proxy)/student not registered" style="rounded=1;whiteSpace=wrap;html=1;labelBackgroundColor=none;fillColor=#FAE5C7;strokeColor=#0F8B8D;fontColor=#143642;fontFamily=Helvetica;fontSize=16;" parent="1" vertex="1">
          <mxGeometry x="459" y="2539" width="165" height="60" as="geometry" />
        </mxCell>
        <mxCell id="D8XOkA7cvgEgh_rD4I0m-105" value="Yes" style="text;html=1;align=center;verticalAlign=middle;resizable=0;points=[];autosize=1;strokeColor=none;fillColor=none;labelBackgroundColor=none;fontColor=#143642;fontFamily=Helvetica;fontSize=16;" parent="1" vertex="1">
          <mxGeometry x="288" y="2478" width="44" height="31" as="geometry" />
        </mxCell>
        <mxCell id="D8XOkA7cvgEgh_rD4I0m-106" value="NO" style="text;html=1;align=center;verticalAlign=middle;resizable=0;points=[];autosize=1;strokeColor=none;fillColor=none;labelBackgroundColor=none;fontColor=#143642;fontFamily=Helvetica;fontSize=16;" parent="1" vertex="1">
          <mxGeometry x="439" y="2478" width="42" height="31" as="geometry" />
        </mxCell>
        <mxCell id="D8XOkA7cvgEgh_rD4I0m-110" style="edgeStyle=orthogonalEdgeStyle;rounded=0;orthogonalLoop=1;jettySize=auto;html=1;entryX=0.5;entryY=0;entryDx=0;entryDy=0;labelBackgroundColor=none;strokeColor=#A8201A;fontColor=default;fontFamily=Helvetica;fontSize=16;" parent="1" source="D8XOkA7cvgEgh_rD4I0m-107" target="D8XOkA7cvgEgh_rD4I0m-109" edge="1">
          <mxGeometry relative="1" as="geometry" />
        </mxCell>
        <mxCell id="D8XOkA7cvgEgh_rD4I0m-107" value="Upload Recognition Results to Cloud" style="rounded=1;whiteSpace=wrap;html=1;labelBackgroundColor=none;fillColor=#FAE5C7;strokeColor=#0F8B8D;fontColor=#143642;fontFamily=Helvetica;fontSize=16;" parent="1" vertex="1">
          <mxGeometry x="259" y="2679" width="280" height="60" as="geometry" />
        </mxCell>
        <mxCell id="D8XOkA7cvgEgh_rD4I0m-109" value="" style="ellipse;html=1;shape=endState;fillColor=#FAE5C7;strokeColor=#0F8B8D;labelBackgroundColor=none;fontColor=#143642;fontFamily=Helvetica;fontSize=16;" parent="1" vertex="1">
          <mxGeometry x="369" y="2819" width="60" height="60" as="geometry" />
        </mxCell>
        <mxCell id="D8XOkA7cvgEgh_rD4I0m-111" value="END" style="text;html=1;align=center;verticalAlign=middle;resizable=0;points=[];autosize=1;strokeColor=none;fillColor=none;labelBackgroundColor=none;fontColor=#143642;fontFamily=Helvetica;fontSize=16;" parent="1" vertex="1">
          <mxGeometry x="434" y="2838" width="52" height="31" as="geometry" />
        </mxCell>
      </root>
    </mxGraphModel>
  </diagram>
</mxfile>
